<svg width="377" height="147" viewBox="0 0 377 147" fill="none" xmlns="http://www.w3.org/2000/svg">
<g clip-path="url(#clip0_2068_653)">
<path d="M192.173 14.4072C192.173 16.3888 191.625 17.9533 190.53 19.1006C189.877 19.7845 189.066 20.2628 188.098 20.5391C187.029 20.6995 185.652 20.6573 185.083 20.6572C182.058 20.6572 179.718 21.0325 177.372 22.1797C175.077 23.327 173.278 24.9963 171.974 27.1865C170.67 29.3246 170.018 31.984 170.018 35.165V37.3555H162.196V44.9092H170.018V80H164.211C155.375 79.9997 148.213 72.8363 148.212 64V16C148.212 7.16344 155.376 0 164.212 0H192.173V14.4072ZM212.212 0C221.049 0.00026337 228.212 7.16361 228.212 16V64C228.212 72.8364 221.048 80 212.211 80H178.78V44.9092H188.516V37.3555H178.78V35.165C178.78 32.714 179.484 30.9668 180.892 29.9238C182.3 28.829 184.199 28.3359 186.524 28.2812H188.042C188.046 28.2902 188.048 28.2959 188.048 28.2959H192.148L192.173 49.2959C192.173 53.8328 193.398 57.3532 195.849 59.8564C198.3 62.3595 201.743 63.6113 206.175 63.6113C206.853 63.6113 207.636 63.5593 208.522 63.4551C209.408 63.3508 210.218 63.2469 210.948 63.1426V55.5547C210.479 55.6068 209.983 55.6588 209.461 55.7109C208.94 55.7631 208.47 55.789 208.053 55.7891C206.385 55.7891 205.028 55.5282 203.985 55.0068C202.942 54.4333 202.186 53.6508 201.716 52.6602C201.247 51.6172 201.012 50.3654 201.012 48.9053V28.3564H210.634V20.8223H201.012V0H212.212Z" fill="#FAFAFA"/>
</g>
<path d="M7.37724 146.142V114.355H0.225098V107.449H7.37724V105.446C7.37724 102.537 7.97325 100.106 9.16528 98.1508C10.3573 96.1482 12.0023 94.6225 14.1003 93.5735C16.2459 92.5245 18.7015 92 21.467 92C21.9915 92 22.5875 92.0477 23.255 92.143C23.9225 92.1907 24.4709 92.2622 24.9 92.3576V99.3667C24.5186 99.2713 24.0894 99.2237 23.6126 99.2237C23.1358 99.176 22.7544 99.1521 22.4683 99.1521C20.3226 99.1521 18.6061 99.6528 17.3187 100.654C16.0313 101.608 15.3876 103.205 15.3876 105.446V107.449H24.2893V114.355H15.3876V146.142H7.37724Z" fill="#FAFAFA"/>
<path d="M24.2893 146.142V107.449H32.0136V115.244L31.2984 114.1C32.1566 111.573 33.5394 109.761 35.4466 108.664C37.3539 107.52 39.6425 106.948 42.3127 106.948H44.6729V114.315H41.3114C38.6412 114.315 36.4718 115.149 34.8029 116.818C33.1818 118.439 32.3712 120.775 32.3712 123.827V146.142H24.2893Z" fill="#FAFAFA"/>
<path d="M61.7168 147C57.9977 147 54.5885 146.118 51.4892 144.354C48.4376 142.59 46.0059 140.182 44.194 137.13C42.3821 134.078 41.4762 130.622 41.4762 126.759C41.4762 122.85 42.3821 119.393 44.194 116.389C46.0059 113.337 48.4376 110.953 51.4892 109.237C54.5408 107.472 57.95 106.59 61.7168 106.59C65.5313 106.59 68.9404 107.472 71.9443 109.237C74.9959 110.953 77.4038 113.337 79.168 116.389C80.9799 119.393 81.8858 122.85 81.8858 126.759C81.8858 130.669 80.9799 134.15 79.168 137.202C77.3561 140.253 74.9244 142.661 71.8728 144.425C68.8212 146.142 65.4359 147 61.7168 147ZM61.7168 139.49C64.0055 139.49 66.0319 138.942 67.7961 137.845C69.5603 136.749 70.943 135.247 71.9443 133.339C72.9933 131.384 73.5178 129.191 73.5178 126.759C73.5178 124.328 72.9933 122.158 71.9443 120.251C70.943 118.344 69.5603 116.842 67.7961 115.745C66.0319 114.648 64.0055 114.1 61.7168 114.1C59.4758 114.1 57.4493 114.648 55.6375 115.745C53.8733 116.842 52.4667 118.344 51.4177 120.251C50.4164 122.158 49.9157 124.328 49.9157 126.759C49.9157 129.191 50.4164 131.384 51.4177 133.339C52.4667 135.247 53.8733 136.749 55.6375 137.845C57.4493 138.942 59.4758 139.49 61.7168 139.49Z" fill="#FAFAFA"/>
<path d="M82.6239 146.142V107.449H90.3483V115.03L89.4185 114.029C90.3721 111.597 91.8979 109.761 93.9959 108.521C96.0938 107.234 98.5256 106.59 101.291 106.59C104.152 106.59 106.679 107.21 108.872 108.45C111.066 109.69 112.782 111.406 114.022 113.599C115.262 115.793 115.881 118.32 115.881 121.181V146.142H107.871V123.326C107.871 121.371 107.513 119.726 106.798 118.391C106.083 117.009 105.058 115.96 103.723 115.244C102.435 114.482 100.957 114.1 99.2884 114.1C97.6196 114.1 96.1177 114.482 94.7826 115.244C93.4952 115.96 92.4939 117.009 91.7787 118.391C91.0635 119.774 90.7059 121.419 90.7059 123.326V146.142H82.6239Z" fill="#FAFAFA"/>
<path d="M134.115 146.571C130.062 146.571 126.915 145.427 124.674 143.138C122.433 140.849 121.313 137.631 121.313 133.482V114.338H117.589C117.589 114.338 116.817 112.481 116.168 111.646C115.549 110.848 114.421 109.538 114.421 109.538L114.518 107.449H115.591C117.403 107.449 118.809 106.924 119.811 105.875C120.812 104.826 121.313 103.396 121.313 101.584V98.58H129.395V107.449H138.192V114.338H129.395V133.125C129.395 134.46 129.609 135.604 130.038 136.558C130.467 137.464 131.159 138.179 132.112 138.704C133.066 139.18 134.306 139.419 135.831 139.419C136.213 139.419 136.642 139.395 137.119 139.347C137.596 139.3 138.049 139.252 138.478 139.204V146.142C137.81 146.237 137.071 146.332 136.261 146.428C135.45 146.523 134.735 146.571 134.115 146.571Z" fill="#FAFAFA"/>
<path d="M139.212 146.142V107.449H147.294V146.142H139.212ZM139.212 102.156V92.8583H147.294V102.156H139.212Z" fill="#FAFAFA"/>
<path d="M167.758 147C163.896 147 160.463 146.118 157.459 144.354C154.503 142.542 152.19 140.11 150.521 137.059C148.852 133.959 148.018 130.502 148.018 126.688C148.018 122.778 148.852 119.321 150.521 116.317C152.238 113.313 154.526 110.953 157.387 109.237C160.248 107.472 163.491 106.59 167.114 106.59C170.023 106.59 172.621 107.091 174.91 108.092C177.199 109.094 179.13 110.476 180.703 112.241C182.277 113.957 183.469 115.936 184.279 118.177C185.138 120.418 185.567 122.802 185.567 125.329C185.567 125.949 185.543 126.593 185.495 127.26C185.448 127.928 185.352 128.547 185.209 129.12H154.383V122.683H180.632L176.77 125.615C177.246 123.279 177.08 121.205 176.269 119.393C175.506 117.533 174.314 116.079 172.693 115.03C171.119 113.933 169.26 113.385 167.114 113.385C164.969 113.385 163.061 113.933 161.393 115.03C159.724 116.079 158.436 117.605 157.53 119.607C156.624 121.562 156.267 123.946 156.458 126.759C156.219 129.382 156.577 131.671 157.53 133.625C158.532 135.58 159.914 137.106 161.679 138.203C163.49 139.3 165.541 139.848 167.829 139.848C170.166 139.848 172.145 139.323 173.766 138.274C175.435 137.225 176.746 135.866 177.699 134.198L184.279 137.416C183.517 139.228 182.324 140.873 180.703 142.351C179.13 143.782 177.223 144.926 174.982 145.784C172.788 146.595 170.38 147 167.758 147Z" fill="#FAFAFA"/>
<path d="M186.302 146.142V107.449H194.026V115.244L193.311 114.1C194.169 111.573 195.552 109.761 197.459 108.664C199.367 107.52 201.655 106.948 204.326 106.948H206.686V114.315H203.324C200.654 114.315 198.485 115.149 196.816 116.818C195.195 118.439 194.384 120.775 194.384 123.827V146.142H186.302Z" fill="#FAFAFA"/>
<path d="M222.497 146.571C218.444 146.571 215.297 145.427 213.056 143.138C210.815 140.849 209.695 137.631 209.695 133.482V114.322H202.9V107.449H203.973C205.785 107.449 207.191 106.924 208.193 105.875C209.194 104.826 209.695 103.396 209.695 101.584V98.58H217.777V107.449H226.574V114.322H217.777V133.125C217.777 134.46 217.991 135.604 218.42 136.558C218.849 137.464 219.541 138.179 220.494 138.704C221.448 139.18 222.688 139.419 224.214 139.419C224.595 139.419 225.024 139.395 225.501 139.347C225.978 139.3 226.431 139.252 226.86 139.204V146.142C226.192 146.237 225.453 146.332 224.643 146.428C223.832 146.523 223.117 146.571 222.497 146.571Z" fill="#FAFAFA"/>
<path d="M245.563 147C241.844 147 238.435 146.118 235.336 144.354C232.284 142.59 229.852 140.182 228.04 137.13C226.229 134.078 225.323 130.622 225.323 126.759C225.323 122.85 226.229 119.393 228.04 116.389C229.852 113.337 232.284 110.953 235.336 109.237C238.387 107.472 241.796 106.59 245.563 106.59C249.378 106.59 252.787 107.472 255.791 109.237C258.842 110.953 261.25 113.337 263.014 116.389C264.826 119.393 265.732 122.85 265.732 126.759C265.732 130.669 264.826 134.15 263.014 137.202C261.203 140.253 258.771 142.661 255.719 144.425C252.668 146.142 249.282 147 245.563 147ZM245.563 139.49C247.852 139.49 249.878 138.942 251.643 137.845C253.407 136.749 254.789 135.247 255.791 133.339C256.84 131.384 257.364 129.191 257.364 126.759C257.364 124.328 256.84 122.158 255.791 120.251C254.789 118.344 253.407 116.842 251.643 115.745C249.878 114.648 247.852 114.1 245.563 114.1C243.322 114.1 241.296 114.648 239.484 115.745C237.72 116.842 236.313 118.344 235.264 120.251C234.263 122.158 233.762 124.328 233.762 126.759C233.762 129.191 234.263 131.384 235.264 133.339C236.313 135.247 237.72 136.749 239.484 137.845C241.296 138.942 243.322 139.49 245.563 139.49Z" fill="#FAFAFA"/>
<path d="M275.141 146.142L261.838 107.449H270.421L280.577 138.274H277.573L287.944 107.449H295.31L305.609 138.274H302.605L312.833 107.449H321.416L308.041 146.142H300.746L290.304 114.601H292.95L282.508 146.142H275.141Z" fill="#FAFAFA"/>
<path d="M337.272 147C333.41 147 329.977 146.118 326.973 144.354C324.017 142.542 321.704 140.11 320.035 137.059C318.367 133.959 317.532 130.502 317.532 126.688C317.532 122.778 318.367 119.321 320.035 116.317C321.752 113.313 324.041 110.953 326.902 109.237C329.762 107.472 333.005 106.59 336.628 106.59C339.537 106.59 342.136 107.091 344.424 108.092C346.713 109.094 348.644 110.476 350.218 112.241C351.791 113.957 352.983 115.936 353.794 118.177C354.652 120.418 355.081 122.802 355.081 125.329C355.081 125.949 355.057 126.593 355.009 127.26C354.962 127.928 354.866 128.547 354.723 129.12H323.898V122.683H350.146L346.284 125.615C346.761 123.279 346.594 121.205 345.783 119.393C345.02 117.533 343.828 116.079 342.207 115.03C340.634 113.933 338.774 113.385 336.628 113.385C334.483 113.385 332.576 113.933 330.907 115.03C329.238 116.079 327.951 117.605 327.045 119.607C326.139 121.562 325.781 123.946 325.972 126.759C325.733 129.382 326.091 131.671 327.045 133.625C328.046 135.58 329.429 137.106 331.193 138.203C333.005 139.3 335.055 139.848 337.344 139.848C339.68 139.848 341.659 139.323 343.28 138.274C344.949 137.225 346.26 135.866 347.214 134.198L353.794 137.416C353.031 139.228 351.839 140.873 350.218 142.351C348.644 143.782 346.737 144.926 344.496 145.784C342.303 146.595 339.895 147 337.272 147Z" fill="#FAFAFA"/>
<path d="M355.816 146.142V107.449H363.541V115.244L362.825 114.1C363.684 111.573 365.066 109.761 366.974 108.664C368.881 107.52 371.17 106.948 373.84 106.948H376.2V114.315H372.838C370.168 114.315 367.999 115.149 366.33 116.818C364.709 118.439 363.898 120.775 363.898 123.827V146.142H355.816Z" fill="#FAFAFA"/>
<defs>
<clipPath id="clip0_2068_653">
<rect x="148.212" width="80" height="80" rx="17" fill="white"/>
</clipPath>
</defs>
</svg>
